<svg width="14" height="19" viewBox="0 0 14 19" fill="none" xmlns="http://www.w3.org/2000/svg">
<path fill-rule="evenodd" clip-rule="evenodd" d="M7 0.620998L6.31 1.277L6.305 1.281L6.289 1.296C6.2024 1.37938 6.11706 1.46405 6.033 1.55C5.01136 2.58382 4.06369 3.68821 3.197 4.855C1.682 6.897 0 9.751 0 12.504C0 16.173 3.219 19 7 19C10.781 19 14 16.173 14 12.505C14 9.752 12.317 6.898 10.804 4.855C9.88028 3.61244 8.86477 2.44083 7.766 1.35L7.711 1.296L7.695 1.281L7.691 1.277L7 0.620998ZM5.098 12.618C5.01391 12.3685 4.83478 12.1621 4.5995 12.0439C4.36422 11.9256 4.09178 11.9049 3.84134 11.9863C3.59089 12.0676 3.38265 12.2445 3.26183 12.4785C3.141 12.7125 3.11735 12.9847 3.196 13.236C3.45701 14.0393 3.96563 14.7394 4.64898 15.236C5.33232 15.7325 6.15531 15.9999 7 16C7.26522 16 7.51957 15.8946 7.70711 15.7071C7.89464 15.5196 8 15.2652 8 15C8 14.7348 7.89464 14.4804 7.70711 14.2929C7.51957 14.1054 7.26522 14 7 14C6.57766 14 6.16616 13.8662 5.82449 13.618C5.48282 13.3697 5.2285 13.0197 5.098 12.618Z" fill="#424242"/>
</svg>
